<svg width="570" height="500" viewBox="0 0 570 500" fill="none" xmlns="http://www.w3.org/2000/svg">
<mask id="mask0" mask-type="alpha" maskUnits="userSpaceOnUse" x="0" y="0" width="570" height="500">
<rect width="570" height="499.302" rx="20" fill="#F6FBF7"/>
</mask>
<g mask="url(#mask0)">
<g opacity="0.2">
<path d="M98 535.921L285.781 416.816L467.836 484.352L703.934 259.637L782 776.545L155.962 833.834L98 535.921Z" stroke="#00D09C"/>
<path d="M102 578.862L289.781 459.756L471.836 527.293L707.934 302.577L786 819.486L159.962 876.775L102 578.862Z" stroke="#00D09C"/>
</g>
<g opacity="0.2">
<path d="M464.528 -89.3823L296.596 56.3129L106.502 16.5942L-93.4633 273.906L-247.722 -225.637L362.799 -375.358L464.528 -89.3823Z" stroke="#00D09C"/>
<path d="M447.792 -133.32L279.86 12.3754L89.766 -27.3433L-110.2 229.968L-264.458 -269.574L346.062 -419.296L447.792 -133.32Z" stroke="#00D09C"/>
</g>
</g>
</svg>
