<svg width="49" height="49" viewBox="0 0 49 49" fill="none" xmlns="http://www.w3.org/2000/svg">
<path d="M24.1882 34.8097L8.86743 34.8432C8.2202 34.8446 7.76357 34.1546 7.95293 33.4811C9.09158 29.4371 8.57332 31.278 10.1832 25.5589C10.307 25.1194 10.6756 24.8201 11.0931 24.8192L21.9384 24.7955C22.356 24.7945 22.7258 25.0922 22.8515 25.5312L25.1165 33.4436C25.3026 34.0956 24.8817 34.8082 24.1882 34.8097Z" fill="#E0C189"/>
<path d="M39.5302 34.7757L24.2094 34.8092L24.1994 30.2347L25.5252 25.5249C25.649 25.0853 26.0175 24.786 26.4351 24.7851L37.2804 24.7614C37.698 24.7605 38.0678 25.0582 38.1935 25.4972L40.4584 33.4095C40.6446 34.0615 40.2237 34.7742 39.5302 34.7757Z" fill="#E0C189"/>
<path d="M32.7783 24.7707L15.5944 24.8082C15.5939 24.5718 15.3952 25.3491 18.1623 15.5212C18.2861 15.0816 18.6546 14.7823 19.0722 14.7814L29.2567 14.7591C29.6743 14.7582 30.0441 15.0559 30.1699 15.4949C32.9538 25.2196 32.7778 24.5315 32.7783 24.7707Z" fill="#E0C189"/>
</svg>
